<?xml version="1.0" encoding="utf-8"?>
<!-- Generator: Adobe Illustrator 24.0.1, SVG Export Plug-In . SVG Version: 6.00 Build 0)  -->
<svg version="1.1" id="Camada_1" xmlns="http://www.w3.org/2000/svg" xmlns:xlink="http://www.w3.org/1999/xlink" x="0px" y="0px"
	 viewBox="0 0 891 327.36" style="enable-background:new 0 0 891 327.36;" xml:space="preserve">
<style type="text/css">
	.st0{fill:#F2CC38;}
</style>
<g>
	<path class="st0" d="M703.09,121.16c-14.28,7.04-26.42,1.68-32.66-5.69c-7.14-8.43-8.01-20.88-2.11-30.25
		c5.95-9.43,17.43-13.97,28.22-11.17c11.68,3.03,18.35,12.39,19.18,27.21c1.01,0.16,2.08,0.38,3.16,0.5
		c14.76,1.6,29.52,3.14,44.26,4.81c2.14,0.24,3.55-0.2,4.81-1.99c1.53-2.18,3.13-4.42,5.11-6.16c2.81-2.48,5.68-5.43,9.07-6.61
		c11.62-4.05,23.48-7.41,35.44-11.1c0.52,1.59,0.92,2.82,1.43,4.41c-6.57,1.98-12.92,3.9-19.27,5.81
		c-3.62,1.08-7.22,2.29-10.89,3.16c-7.54,1.79-12.67,6.58-17.03,13.37c3.01,0.32,5.73,0.51,8.41,0.96c1.08,0.18,2.66,0.73,2.92,1.49
		c0.27,0.78-0.56,2.23-1.31,3.02c-10.93,11.62-21.55,23.55-33.01,34.62c-9.86,9.54-15.84,20.47-16.85,34.15
		c-0.8,10.89-2.13,21.76-2.43,32.66c-0.23,8.13,3.2,11.69,11.03,13.56c3.36,0.8,6.76,1.45,10.17,2c2.16,0.34,3.01,1.2,1.96,3.49
		c-19.12-2.05-38.26-4.11-57.38-6.16c-0.56-2.45,0.39-3.11,2.61-3c4.01,0.19,8.02,0.2,12.03,0.16c4.9-0.05,8.63-2.19,10.51-6.81
		c1.17-2.87,2.43-5.85,2.76-8.88c1.38-12.63,2.62-25.29,3.49-37.97c0.45-6.54-1.26-12.76-4.77-18.47
		c-5.9-9.59-11.63-19.29-17.44-28.94C704.08,122.58,703.56,121.87,703.09,121.16z M763.93,108.98c-23.25-2.5-46.24-4.97-69.95-7.52
		c1.14,1.92,1.97,3.31,2.8,4.7c8.87,14.96,17.53,30.05,26.69,44.82c4.43,7.16,5.54,14.79,4.86,22.75
		c-1.08,12.66-2.68,25.28-4.06,37.92c-0.08,0.78-0.41,1.62-0.22,2.31c0.23,0.81,0.92,1.49,1.41,2.22c0.68-0.6,1.79-1.1,1.95-1.81
		c0.43-1.94,0.44-3.98,0.66-5.98c1.3-11.97,2.43-23.96,4-35.89c0.94-7.15,3.52-13.61,8.74-19.06
		c12.58-13.11,24.84-26.52,37.23-39.82c0.76-0.82,1.44-1.72,2.33-2.78c-9.68-2.33-11.57-1.66-15.31,5.13
		c1.47,0.63,2.94,1.26,4.64,1.99c-0.71,0.88-1.22,1.59-1.81,2.21c-9.26,9.81-18.52,19.62-27.81,29.4c-5,5.26-10.89,4.65-14.71-1.49
		c-2.41-3.88-4.73-7.83-7.08-11.74c-5.43-9.03-10.85-18.06-16.68-27.76c1.7,0.78,2.69,1.22,3.67,1.68
		c11.5,5.43,23.22,7.87,35.92,4.24c4.25-1.21,9.18-1.43,13.51-0.6C759.63,114.87,761.91,112.91,763.93,108.98z M692.43,97.85
		c0.08,0.35,0.16,0.7,0.24,1.05c5.7,0.61,11.4,1.28,17.12,1.74c0.54,0.04,1.77-1.34,1.67-1.88c-0.56-3.14-1.29-6.26-2.31-9.27
		c-0.19-0.57-2.31-1.2-2.93-0.81C701.54,91.6,697.01,94.76,692.43,97.85z M690.91,96.56c0.28,0.14,0.55,0.28,0.83,0.42
		c4.34-3.26,8.75-6.43,12.93-9.88c0.65-0.53,0.74-3.04,0.17-3.5c-2.28-1.86-4.84-3.46-7.49-4.75c-0.71-0.34-2.92,0.58-3.08,1.25
		C692.96,85.54,691.98,91.06,690.91,96.56z M687.43,98.11c0.17-0.29,0.33-0.58,0.5-0.87c-2.22-3.02-4.43-6.05-6.67-9.05
		c-5.04-6.74-6.72-6.55-10.49,1.18c-0.43,0.89-1.03,1.88-0.96,2.78c0.08,0.9,0.75,2.34,1.42,2.5
		C676.59,95.95,682.02,96.99,687.43,98.11z M687.44,100.22c-0.08-0.33-0.16-0.67-0.24-1c-5.33-0.82-10.64-1.76-15.99-2.33
		c-0.83-0.09-2.7,1.61-2.61,2.3c0.38,3.03,1.16,6.05,2.14,8.95c0.22,0.64,2.25,1.4,2.81,1.06
		C678.26,106.35,682.83,103.25,687.44,100.22z M688.74,96.36c0.34-0.09,0.68-0.19,1.02-0.28c0.79-5.46,1.68-10.9,2.23-16.38
		c0.07-0.7-1.67-2.34-2.4-2.24c-2.94,0.39-5.85,1.15-8.67,2.09c-0.7,0.23-1.67,2.02-1.42,2.43
		C682.47,86.85,685.63,91.59,688.74,96.36z M688.85,101.35c-0.28-0.15-0.55-0.3-0.83-0.44c-4.24,3.21-8.55,6.32-12.63,9.72
		c-0.68,0.57-0.87,3.08-0.35,3.49c2.4,1.88,5.06,3.49,7.8,4.84c0.65,0.32,2.72-0.54,2.85-1.14
		C686.92,112.36,687.84,106.85,688.85,101.35z M691.14,101.34c-0.48,0.05-0.96,0.1-1.44,0.14c-0.6,5.61-1.29,11.2-1.69,16.82
		c-0.05,0.65,1.59,2.1,2.29,2.01c2.94-0.39,5.86-1.12,8.69-2.01c0.52-0.16,1.14-1.92,0.84-2.45
		C697.04,110.96,694.06,106.16,691.14,101.34z M696.14,225.36c-0.05,0.47-0.1,0.94-0.15,1.41c18.68,2,37.36,4.02,56.04,6.01
		c0.05-0.46,0.1-0.93,0.15-1.39C733.49,229.37,714.82,227.36,696.14,225.36z"/>
</g>
<g>
	<g>
		<g>
			<g>
				<path class="st0" d="M1131.37,131.52c-14.28,7.04-26.42,1.68-32.65-5.69c-7.14-8.43-8.01-20.88-2.11-30.25
					c5.95-9.43,17.43-13.97,28.22-11.17c11.68,3.03,18.35,12.39,19.18,27.21c1.01,0.16,2.08,0.38,3.16,0.5
					c14.76,1.6,29.52,3.14,44.26,4.81c2.14,0.24,3.55-0.2,4.81-1.99c1.53-2.18,3.13-4.42,5.11-6.16c2.81-2.48,5.68-5.43,9.07-6.61
					c11.62-4.05,23.48-7.41,35.44-11.1c0.52,1.59,0.92,2.82,1.43,4.41c-6.57,1.98-12.92,3.9-19.27,5.81
					c-3.62,1.08-7.22,2.29-10.89,3.16c-7.54,1.79-12.67,6.58-17.03,13.37c3.01,0.32,5.73,0.51,8.41,0.96
					c1.08,0.18,2.66,0.73,2.92,1.49c0.27,0.78-0.56,2.23-1.31,3.02c-10.93,11.62-21.55,23.55-33.01,34.62
					c-9.86,9.54-15.84,20.47-16.85,34.15c-0.8,10.89-2.13,21.76-2.43,32.66c-0.23,8.13,3.2,11.69,11.03,13.56
					c3.36,0.8,6.76,1.45,10.17,2c2.16,0.34,3.01,1.2,1.96,3.49c-19.12-2.05-38.26-4.11-57.38-6.16c-0.56-2.45,0.39-3.11,2.61-3
					c4.01,0.19,8.02,0.2,12.03,0.16c4.9-0.05,8.63-2.19,10.51-6.81c1.17-2.87,2.43-5.85,2.76-8.88c1.38-12.63,2.62-25.29,3.49-37.97
					c0.45-6.54-1.26-12.76-4.77-18.47c-5.9-9.59-11.63-19.29-17.44-28.94C1132.36,132.94,1131.85,132.23,1131.37,131.52z
					 M1192.21,119.34c-23.25-2.5-46.24-4.97-69.95-7.52c1.14,1.92,1.97,3.31,2.8,4.7c8.87,14.96,17.53,30.05,26.69,44.83
					c4.43,7.16,5.54,14.79,4.86,22.75c-1.08,12.66-2.68,25.28-4.06,37.92c-0.08,0.78-0.41,1.62-0.22,2.31
					c0.23,0.81,0.92,1.49,1.41,2.22c0.68-0.6,1.79-1.1,1.95-1.81c0.43-1.94,0.44-3.98,0.66-5.98c1.3-11.97,2.43-23.96,4-35.89
					c0.94-7.15,3.52-13.61,8.74-19.06c12.58-13.11,24.84-26.52,37.23-39.82c0.76-0.82,1.44-1.72,2.33-2.78
					c-9.68-2.33-11.57-1.66-15.31,5.13c1.47,0.63,2.94,1.26,4.64,1.99c-0.71,0.88-1.22,1.59-1.81,2.21
					c-9.26,9.81-18.52,19.62-27.81,29.4c-5,5.26-10.89,4.65-14.7-1.49c-2.41-3.88-4.73-7.83-7.08-11.74
					c-5.43-9.03-10.85-18.06-16.68-27.76c1.7,0.78,2.69,1.22,3.67,1.68c11.5,5.43,23.22,7.87,35.92,4.24
					c4.25-1.21,9.18-1.43,13.51-0.6C1187.91,125.22,1190.19,123.26,1192.21,119.34z M1120.71,108.21c0.08,0.35,0.16,0.7,0.24,1.05
					c5.7,0.61,11.4,1.28,17.12,1.74c0.54,0.04,1.77-1.34,1.67-1.88c-0.56-3.14-1.29-6.26-2.31-9.27c-0.19-0.57-2.31-1.2-2.93-0.81
					C1129.82,101.95,1125.29,105.12,1120.71,108.21z M1119.19,106.92c0.28,0.14,0.55,0.28,0.83,0.42c4.34-3.26,8.75-6.43,12.93-9.88
					c0.65-0.53,0.74-3.04,0.17-3.5c-2.28-1.86-4.84-3.46-7.49-4.75c-0.71-0.34-2.92,0.58-3.08,1.25
					C1121.25,95.89,1120.27,101.42,1119.19,106.92z M1115.72,108.47c0.17-0.29,0.33-0.58,0.5-0.87c-2.22-3.02-4.43-6.05-6.67-9.05
					c-5.04-6.74-6.72-6.55-10.49,1.18c-0.43,0.89-1.03,1.88-0.96,2.78c0.08,0.9,0.75,2.34,1.42,2.5
					C1104.88,106.3,1110.31,107.35,1115.72,108.47z M1115.72,110.58c-0.08-0.33-0.16-0.67-0.24-1c-5.33-0.82-10.64-1.76-15.99-2.33
					c-0.83-0.09-2.7,1.61-2.61,2.3c0.38,3.03,1.16,6.05,2.14,8.95c0.22,0.64,2.25,1.4,2.81,1.06
					C1106.55,116.7,1111.11,113.6,1115.72,110.58z M1117.02,106.72c0.34-0.09,0.68-0.19,1.02-0.28c0.79-5.46,1.68-10.9,2.23-16.38
					c0.07-0.7-1.67-2.34-2.4-2.24c-2.94,0.39-5.85,1.15-8.67,2.09c-0.7,0.23-1.67,2.02-1.42,2.43
					C1110.75,97.2,1113.91,101.94,1117.02,106.72z M1117.14,111.71c-0.28-0.15-0.55-0.3-0.83-0.44c-4.24,3.21-8.55,6.32-12.63,9.72
					c-0.68,0.57-0.87,3.08-0.35,3.49c2.4,1.88,5.06,3.49,7.8,4.84c0.65,0.32,2.72-0.54,2.85-1.14
					C1115.2,122.72,1116.13,117.2,1117.14,111.71z M1119.42,111.69c-0.48,0.05-0.96,0.1-1.44,0.14c-0.6,5.61-1.29,11.2-1.69,16.82
					c-0.05,0.65,1.59,2.1,2.29,2.01c2.94-0.39,5.86-1.12,8.69-2.01c0.52-0.16,1.14-1.92,0.84-2.45
					C1125.33,121.31,1122.35,116.52,1119.42,111.69z M1124.42,235.71c-0.05,0.47-0.1,0.94-0.15,1.41c18.68,2,37.36,4.02,56.04,6.01
					c0.05-0.46,0.1-0.93,0.15-1.39C1161.78,239.72,1143.1,237.72,1124.42,235.71z"/>
			</g>
		</g>
	</g>
</g>
<g>
	<path d="M96.02,186.72v-67.84h3.21l15.4,28.39c2.14,3.85,4.35,7.86,6.66,12.03c2.3,4.17,4.54,8.26,6.74,12.27
		c2.19,4.01,4.27,7.86,6.25,11.55c1.98,3.69,3.77,6.98,5.37,9.86c3.53-6.41,7.03-13.12,10.5-20.13c3.47-7,6.79-13.82,9.94-20.45
		c3.15-6.63,6.07-12.85,8.74-18.68c2.67-5.83,4.92-10.77,6.74-14.83h7.86v112.26h-7.7V127.06c-0.86,1.82-2.19,4.76-4.01,8.82
		c-1.82,4.06-3.98,8.74-6.5,14.03c-2.51,5.29-5.29,11.01-8.34,17.16c-3.05,6.15-6.2,12.27-9.46,18.36
		c-3.26,6.09-6.57,11.95-9.94,17.56c-3.37,5.61-6.6,10.53-9.7,14.75c-3.1,4.22-5.99,7.56-8.66,10.02c-2.67,2.46-5.03,3.58-7.06,3.37
		h-0.48c-2.57-0.32-4.73-1.44-6.5-3.37s-3.23-4.3-4.41-7.14c-1.18-2.83-2.08-5.93-2.73-9.3c-0.64-3.37-1.1-6.66-1.36-9.86
		c-0.27-3.21-0.43-6.12-0.48-8.74C96.04,190.11,96.02,188.11,96.02,186.72z M99.55,135.56v51c0,3.21,0.13,7.08,0.4,11.63
		c0.27,4.55,0.83,8.96,1.68,13.23c0.85,4.28,2.08,7.99,3.69,11.15c1.6,3.15,3.69,4.95,6.25,5.37h0.64c2.46,0,5.72-2.38,9.78-7.14
		c4.06-4.76,8.5-11.47,13.31-20.13c-1.07-1.92-2.41-4.33-4.01-7.22c-1.6-2.89-3.34-6.04-5.21-9.46c-1.87-3.42-3.82-6.98-5.85-10.66
		c-2.03-3.69-4.01-7.35-5.93-10.99L99.55,135.56z"/>
	<path d="M191.44,118.88h8.98c0.21,0.54,0.51,1.15,0.88,1.84c0.37,0.7,0.83,1.47,1.36,2.33c0.85,1.5,1.95,3.42,3.29,5.77
		c1.34,2.35,2.91,5.24,4.73,8.66c0.96,0.43,2.3,0.64,4.01,0.64c3.1-0.11,6.17-1.18,9.22-3.21c3.05-2.03,6.01-4.25,8.9-6.66
		c2.89-2.41,5.64-4.57,8.26-6.5c2.62-1.92,5.05-2.83,7.3-2.73h0.8c5.24,0.54,9.59,2.38,13.07,5.53c3.47,3.15,5.21,7.08,5.21,11.79
		v1.6c-0.22,5.99-2.73,13.47-7.54,22.45c-4.81,8.98-10.91,19.67-18.28,32.07v38.65h-8.34v-36.56l-20.85-37.69
		c-1.92-3.53-3.85-7.03-5.77-10.5c-1.92-3.47-3.72-6.74-5.37-9.78c-1.66-3.05-3.18-5.83-4.57-8.34c-1.39-2.51-2.51-4.57-3.37-6.17
		L191.44,118.88z M220.31,154.48c2.14,3.85,4.27,7.7,6.41,11.55c2.14,3.85,4.11,7.35,5.93,10.5c1.82,3.15,3.34,5.83,4.57,8.02
		c1.23,2.19,2.06,3.66,2.49,4.41c2.89-4.7,5.8-9.51,8.74-14.43c2.94-4.92,5.58-9.62,7.94-14.11c2.35-4.49,4.27-8.63,5.77-12.43
		c1.5-3.79,2.25-6.98,2.25-9.54v-1.12c0-9.09-5.08-14.38-15.23-15.88h-1.12c-2.14-0.1-4.44,0.78-6.9,2.65
		c-2.46,1.87-5.08,3.98-7.86,6.33c-2.78,2.35-5.83,4.52-9.14,6.49c-3.31,1.98-6.95,2.97-10.9,2.97h-1.28L220.31,154.48z"/>
	<path d="M322.3,168.76c0-3.74,0.53-7.32,1.6-10.74c1.07-3.42,2.51-6.31,4.33-8.66c2.67-3.53,4.33-6.47,4.97-8.82
		c0.64-2.35,0.96-4.27,0.96-5.77c0.11-0.85,0-1.98-0.32-3.37c-0.32-1.39-0.96-2.83-1.92-4.33c-0.96-1.5-2.22-2.97-3.77-4.41
		c-1.55-1.44-3.5-2.7-5.85-3.77c7.06,0,12.43-0.05,16.12-0.16c3.69-0.11,6.07-0.16,7.14-0.16c3.85,0,7.72,0.16,11.63,0.48
		c3.9,0.32,7.75,1.04,11.55,2.17c3.79,1.12,7.46,2.73,10.99,4.81c3.53,2.08,6.84,4.89,9.94,8.42c3.31,4.06,6.04,9.2,8.18,15.4
		c2.25,6.2,3.53,11.57,3.85,16.12c0.32,4.55,0.48,7.78,0.48,9.7c0,5.24-0.59,10.93-1.76,17.08c-1.18,6.15-3.74,12.16-7.7,18.04
		c-3.85,5.88-9.09,10.69-15.72,14.43c-6.63,3.74-14.91,5.72-24.86,5.93H322.3V168.76z M330.64,173.41c0,2.67,0.03,5.85,0.08,9.54
		c0.05,3.69,0.08,7.38,0.08,11.07s0.03,7.14,0.08,10.34c0.05,3.21,0.08,5.67,0.08,7.38c0,2.46,0,5.08,0,7.86
		c0,2.78-0.06,5.67-0.16,8.66h19.46c1.29,0,2.79-0.13,4.5-0.4c1.71-0.27,3.4-0.59,5.06-0.96c1.66-0.37,3.27-0.77,4.82-1.2
		c1.55-0.43,2.87-0.8,3.94-1.12l2.25-0.64c4.39-2.25,8.04-5.13,10.93-8.66c2.89-3.53,5.2-7.46,6.91-11.79
		c1.71-4.33,2.92-8.93,3.62-13.79c0.7-4.86,1.04-9.81,1.04-14.83c0-8.23-0.72-15.29-2.17-21.17c-1.45-5.88-3.4-10.8-5.87-14.75
		c-2.47-3.95-5.31-7.08-8.52-9.38c-3.22-2.3-6.59-4.03-10.13-5.21c-3.54-1.18-7.1-1.92-10.69-2.25s-6.99-0.48-10.21-0.48
		c-0.75,0-2.41,0.03-4.98,0.08c-2.57,0.06-5.74,0.08-9.49,0.08c1.92,1.18,3.5,2.46,4.73,3.85c1.23,1.39,2.17,2.75,2.81,4.09
		c0.64,1.34,1.07,2.57,1.28,3.69c0.21,1.12,0.27,1.9,0.16,2.33c0,1.71-0.38,3.77-1.12,6.17c-0.75,2.41-2.35,5.32-4.81,8.74
		c-1.5,2.89-2.49,6.01-2.97,9.38S330.64,167.85,330.64,173.41z"/>
	<path d="M413.23,168.6c0-3.74,0.43-7.3,1.28-10.66c0.85-3.37,2.19-6.23,4.01-8.58c2.57-3.42,4.17-6.31,4.81-8.66
		c0.64-2.35,0.96-4.27,0.96-5.77c0.11-0.85,0-1.98-0.32-3.37c-0.32-1.39-0.91-2.83-1.76-4.33c-0.86-1.5-2-2.97-3.45-4.41
		s-3.29-2.75-5.53-3.93c6.09-0.21,10.96-0.35,14.59-0.4c3.63-0.05,6.41-0.08,8.34-0.08c1.82,0,3.69,0,5.61,0
		c1.92,0,3.85,0.06,5.77,0.16c5.77,0.22,11.44,1.18,17,2.89c5.56,1.71,10.32,4.66,14.27,8.84c1.82,1.82,3.26,3.89,4.33,6.19
		c1.07,2.31,1.6,4.74,1.6,7.31c0,4.5-1.26,7.72-3.77,9.65c-2.51,1.93-5.69,3.3-9.54,4.1c-3.85,0.8-8.05,1.45-12.59,1.93
		c-4.55,0.48-8.85,1.53-12.91,3.13c-3.53,1.29-6.28,2.81-8.26,4.58c-1.98,1.77-3.48,3.46-4.49,5.06c-1.02,1.61-1.63,3.08-1.84,4.42
		c-0.21,1.34-0.32,2.28-0.32,2.81c0,0.96,0.21,2.09,0.64,3.38c0.43,1.29,1.28,1.93,2.57,1.93c1.07,0,2.41-0.35,4.01-1.04
		c1.6-0.69,3.26-1.47,4.97-2.33c1.71-0.85,3.39-1.66,5.05-2.41c1.66-0.75,3.02-1.23,4.09-1.44c1.39-0.21,2.67-0.4,3.85-0.56
		c1.18-0.16,2.35-0.24,3.53-0.24c3.85,0,7,0.67,9.46,2c2.46,1.33,4.44,3.04,5.93,5.12c1.5,2.08,2.62,4.48,3.37,7.19
		c0.75,2.72,1.33,5.41,1.76,8.08c0.43,2.24,0.83,4.66,1.2,7.27c0.37,2.61,0.93,5.3,1.68,8.08c0.75,2.77,1.79,5.57,3.13,8.39
		c1.34,2.83,3.23,5.57,5.69,8.23h-7.7c-3.85-3.41-6.74-7.3-8.66-11.67c-1.92-4.37-3.4-8.63-4.41-12.78
		c-1.02-4.15-1.84-7.97-2.49-11.43c-0.64-3.46-1.66-5.99-3.05-7.59c-1.18-1.49-2.49-2.5-3.93-3.04c-1.44-0.53-2.97-0.8-4.57-0.8
		c-1.6,0-3.29,0.23-5.05,0.7c-1.76,0.46-3.53,0.95-5.29,1.47c-1.76,0.52-3.5,1.01-5.21,1.47c-1.71,0.46-3.31,0.69-4.81,0.69
		c-2.14,0-3.96-0.59-5.45-1.76c-1.08-0.96-1.95-2.17-2.6-3.61c-0.65-1.44-0.98-3.02-0.98-4.73c0,0.11,0-0.19,0-0.88
		c0-0.69,0.19-1.63,0.57-2.81c0.38-1.17,0.98-2.51,1.79-4.01c0.81-1.5,2.02-2.99,3.63-4.49c3.42-3.21,7.46-5.61,12.11-7.22
		c4.65-1.6,9.11-3.07,13.39-4.41c4.28-1.34,7.99-2.78,11.15-4.33c3.15-1.55,4.94-3.87,5.37-6.98c0.11-0.32,0.16-0.85,0.16-1.6
		c0-1.5-0.46-3.29-1.36-5.37c-0.91-2.08-2.35-4.11-4.33-6.09c-1.98-1.98-4.6-3.74-7.86-5.29c-3.26-1.55-7.24-2.54-11.95-2.97
		c-3.85-0.32-7.54-0.48-11.07-0.48c-0.96,0-2.73,0.03-5.3,0.08c-2.57,0.05-6.79,0.24-12.66,0.56c2.07,1.18,3.72,2.46,4.97,3.85
		c1.25,1.39,2.23,2.75,2.94,4.09c0.71,1.34,1.14,2.57,1.31,3.69c0.16,1.12,0.19,1.9,0.08,2.33c0,1.82-0.38,3.93-1.14,6.33
		c-0.76,2.41-2.4,5.32-4.9,8.74c-1.2,1.82-1.99,3.77-2.37,5.85s-0.63,4.2-0.73,6.33v68.16h-8.34V168.6z"/>
	<path d="M502.39,231.14V118.88h8.34v112.26H502.39z"/>
	<path d="M523.56,118.72h3.05c2.14,6.2,5.08,11.95,8.82,17.24c3.74,5.29,7.86,10.37,12.35,15.23c4.49,4.87,9.14,9.6,13.95,14.19
		c4.81,4.6,9.33,9.3,13.55,14.11c4.22,4.81,7.96,9.84,11.23,15.07c3.26,5.24,5.59,10.96,6.98,17.16v-93.01h8.34v112.26h-8.34v-5.61
		c-2.14-7.06-4.81-13.34-8.02-18.84c-3.21-5.51-6.74-10.66-10.58-15.48c-3.1-3.42-6.15-5.88-9.14-7.38
		c-2.99-1.5-5.72-2.25-8.18-2.25c-2.99,0-5.43,0.88-7.3,2.65c-1.87,1.76-2.91,4.09-3.13,6.98c-0.11,0.75-0.16,1.47-0.16,2.17
		c0,0.7,0,1.31,0,1.84c0,0.86,0.08,2.03,0.24,3.53c0.16,1.5,0.32,3.05,0.48,4.65c0.16,1.6,0.32,3.15,0.48,4.65
		c0.16,1.5,0.24,2.67,0.24,3.53c0,0.54,0,1.15,0,1.84c0,0.7-0.06,1.42-0.16,2.17c-0.54,5.45-1.82,9.46-3.85,12.03
		c-2.03,2.57-4.28,3.85-6.74,3.85c-3.1,0-5.88-1.87-8.34-5.61c-0.32-0.43-0.59-0.85-0.8-1.28c-0.22-0.43-0.43-0.91-0.64-1.44
		c-0.86-2.03-1.55-4.35-2.08-6.98c-0.54-2.62-0.96-5.34-1.28-8.18c-0.32-2.83-0.56-5.67-0.72-8.5c-0.16-2.83-0.24-5.42-0.24-7.78
		V118.72z M526.93,195.86c0,1.28,0.03,2.57,0.08,3.85c0.05,1.28,0.13,2.51,0.24,3.69c0.11,1.6,0.35,3.82,0.72,6.66
		c0.37,2.83,0.96,5.64,1.76,8.42c0.8,2.78,1.87,5.19,3.21,7.22c1.33,2.03,3.02,3.05,5.05,3.05c1.92,0,3.66-1.5,5.21-4.49
		c1.55-2.99,2.33-7.91,2.33-14.75c0-3.53-0.27-6.52-0.8-8.98c-0.54-2.46-0.8-4.76-0.8-6.9c0-0.64,0.03-1.6,0.08-2.89
		c0.05-1.28,0.45-3.26,1.2-5.93c0.85-2.78,2.67-4.78,5.45-6.01c2.78-1.23,5.72-1.84,8.82-1.84c0.53,0,1.01,0,1.44,0
		c0.43,0,0.91,0.06,1.44,0.16c-3.32-3.42-6.66-6.79-10.02-10.1c-3.37-3.31-6.58-6.66-9.62-10.02s-5.93-6.87-8.66-10.5
		c-2.73-3.63-5.11-7.48-7.14-11.55V195.86z M607.59,185.92c0-2.35,0.72-5.21,2.17-8.58c1.44-3.37,3.66-7.03,6.66-10.98
		c3.1-4.06,6.31-8.02,9.62-11.87c3.31-3.85,6.66-7.7,10.02-11.55c3.37-3.85,6.74-7.75,10.1-11.71c3.37-3.95,6.6-8.12,9.7-12.51h8.98
		l-18.6,19.4c-2.46,2.57-4.92,5.19-7.38,7.86c-2.46,2.67-4.84,5.24-7.14,7.7c-2.3,2.46-4.38,4.71-6.25,6.74
		c-1.87,2.03-3.34,3.69-4.41,4.97c-4.06,4.81-7,9.25-8.82,13.31c-1.82,4.06-2.62,6.84-2.41,8.34c0,0.75,0.16,1.68,0.48,2.81
		c0.32,1.12,1.5,1.68,3.53,1.68c1.92,0,4.27-0.69,7.06-2.08c1.92-1.07,3.9-1.82,5.93-2.25c2.03-0.43,4.01-0.64,5.93-0.64
		c2.67,0,5.35,0.43,8.02,1.28c2.67,0.86,5.16,2.03,7.46,3.53c2.3,1.5,4.33,3.26,6.09,5.29c1.76,2.03,3.18,4.28,4.25,6.74
		c2.03,4.28,3.66,8.69,4.89,13.23c1.23,4.55,2.11,9.33,2.65,14.35h-8.66c-0.64-3.74-1.42-7.46-2.33-11.15
		c-0.91-3.69-2-7.35-3.29-10.99c-1.92-5.45-5.19-9.67-9.78-12.67c-4.6-2.99-9.62-4.49-15.07-4.49c-2.89,0-5.45,0.38-7.7,1.12
		c-2.14,0.54-3.69,0.8-4.65,0.8c-2.35,0-4.12-0.64-5.29-1.92c-1.18-1.28-1.76-2.99-1.76-5.13V185.92z"/>
</g>
</svg>
