<?xml version="1.0" encoding="utf-8"?>
<!-- Generator: Adobe Illustrator 24.0.1, SVG Export Plug-In . SVG Version: 6.00 Build 0)  -->
<svg version="1.1" id="Camada_1" xmlns="http://www.w3.org/2000/svg" xmlns:xlink="http://www.w3.org/1999/xlink" x="0px" y="0px"
	 viewBox="0 0 460.29 327.36" style="enable-background:new 0 0 460.29 327.36;" xml:space="preserve">
<style type="text/css">
	.st0{fill:#F2CC38;}
</style>
<g>
	<g>
		<g>
			<g>
				<path class="st0" d="M-236.77,121.16c-14.28,7.04-26.42,1.68-32.65-5.69c-7.14-8.43-8.01-20.88-2.11-30.25
					c5.95-9.43,17.43-13.97,28.22-11.17c11.68,3.03,18.35,12.39,19.18,27.21c1.01,0.16,2.08,0.38,3.16,0.5
					c14.76,1.6,29.52,3.14,44.26,4.81c2.14,0.24,3.55-0.2,4.81-1.99c1.53-2.18,3.13-4.42,5.11-6.16c2.81-2.48,5.68-5.43,9.07-6.61
					c11.62-4.05,23.48-7.41,35.44-11.1c0.52,1.59,0.92,2.82,1.43,4.41c-6.57,1.98-12.92,3.9-19.27,5.81
					c-3.62,1.08-7.22,2.29-10.89,3.16c-7.54,1.79-12.67,6.58-17.03,13.37c3.01,0.32,5.73,0.51,8.41,0.96
					c1.08,0.18,2.66,0.73,2.92,1.49c0.27,0.78-0.56,2.23-1.31,3.02c-10.93,11.62-21.55,23.55-33.01,34.62
					c-9.86,9.54-15.84,20.47-16.85,34.15c-0.8,10.89-2.13,21.76-2.43,32.66c-0.23,8.13,3.2,11.69,11.03,13.56
					c3.36,0.8,6.76,1.45,10.17,2c2.16,0.34,3.01,1.2,1.96,3.49c-19.12-2.05-38.26-4.11-57.38-6.16c-0.56-2.45,0.39-3.11,2.61-3
					c4.01,0.19,8.02,0.2,12.03,0.16c4.9-0.05,8.63-2.19,10.51-6.81c1.17-2.87,2.43-5.85,2.76-8.88c1.38-12.63,2.62-25.29,3.49-37.97
					c0.45-6.54-1.26-12.76-4.77-18.47c-5.9-9.59-11.63-19.29-17.44-28.94C-235.78,122.58-236.29,121.87-236.77,121.16z
					 M-175.93,108.98c-23.25-2.5-46.24-4.97-69.95-7.52c1.14,1.92,1.97,3.31,2.8,4.7c8.87,14.96,17.53,30.05,26.69,44.82
					c4.43,7.16,5.54,14.79,4.86,22.75c-1.08,12.66-2.68,25.28-4.06,37.92c-0.08,0.78-0.41,1.62-0.22,2.31
					c0.23,0.81,0.92,1.49,1.41,2.22c0.68-0.6,1.79-1.1,1.95-1.81c0.43-1.94,0.44-3.98,0.66-5.98c1.3-11.97,2.43-23.96,4-35.89
					c0.94-7.15,3.52-13.61,8.74-19.06c12.58-13.11,24.84-26.52,37.23-39.82c0.76-0.82,1.44-1.72,2.33-2.78
					c-9.68-2.33-11.57-1.66-15.31,5.13c1.47,0.63,2.94,1.26,4.64,1.99c-0.71,0.88-1.22,1.59-1.81,2.21
					c-9.26,9.81-18.52,19.62-27.81,29.4c-5,5.26-10.89,4.65-14.71-1.49c-2.41-3.88-4.73-7.83-7.08-11.74
					c-5.43-9.03-10.85-18.06-16.68-27.76c1.7,0.78,2.69,1.22,3.67,1.68c11.5,5.43,23.22,7.87,35.93,4.24
					c4.25-1.21,9.18-1.43,13.51-0.6C-180.23,114.87-177.95,112.91-175.93,108.98z M-247.43,97.85c0.08,0.35,0.16,0.7,0.24,1.05
					c5.7,0.61,11.4,1.28,17.12,1.74c0.54,0.04,1.77-1.34,1.67-1.88c-0.56-3.14-1.29-6.26-2.31-9.27c-0.19-0.57-2.31-1.2-2.93-0.81
					C-238.32,91.6-242.85,94.76-247.43,97.85z M-248.95,96.56c0.28,0.14,0.55,0.28,0.83,0.42c4.34-3.26,8.75-6.43,12.93-9.88
					c0.65-0.53,0.74-3.04,0.17-3.5c-2.28-1.86-4.84-3.46-7.49-4.75c-0.71-0.34-2.92,0.58-3.08,1.25
					C-246.89,85.54-247.87,91.06-248.95,96.56z M-252.42,98.11c0.17-0.29,0.33-0.58,0.5-0.87c-2.22-3.02-4.43-6.05-6.67-9.05
					c-5.04-6.74-6.72-6.55-10.49,1.18c-0.43,0.89-1.03,1.88-0.96,2.78c0.08,0.9,0.75,2.34,1.42,2.5
					C-263.26,95.95-257.83,96.99-252.42,98.11z M-252.42,100.22c-0.08-0.33-0.16-0.67-0.24-1c-5.33-0.82-10.64-1.76-15.99-2.33
					c-0.83-0.09-2.7,1.61-2.61,2.3c0.38,3.03,1.16,6.05,2.14,8.95c0.22,0.64,2.25,1.4,2.81,1.06
					C-261.59,106.35-257.03,103.25-252.42,100.22z M-251.12,96.36c0.34-0.09,0.68-0.19,1.02-0.28c0.79-5.46,1.68-10.9,2.23-16.38
					c0.07-0.7-1.67-2.34-2.4-2.24c-2.94,0.39-5.85,1.15-8.67,2.09c-0.7,0.23-1.67,2.02-1.42,2.43
					C-257.39,86.85-254.23,91.59-251.12,96.36z M-251,101.35c-0.28-0.15-0.55-0.3-0.83-0.44c-4.24,3.21-8.55,6.32-12.63,9.72
					c-0.68,0.57-0.87,3.08-0.35,3.49c2.4,1.88,5.06,3.49,7.8,4.84c0.65,0.32,2.72-0.54,2.85-1.14
					C-252.94,112.36-252.01,106.85-251,101.35z M-248.72,101.34c-0.48,0.05-0.96,0.1-1.44,0.14c-0.6,5.61-1.29,11.2-1.69,16.82
					c-0.05,0.65,1.59,2.1,2.29,2.01c2.94-0.39,5.86-1.12,8.69-2.01c0.52-0.16,1.14-1.92,0.84-2.45
					C-242.81,110.96-245.79,106.16-248.72,101.34z M-243.72,225.36c-0.05,0.47-0.1,0.94-0.15,1.41c18.68,2,37.36,4.02,56.04,6.01
					c0.05-0.46,0.1-0.93,0.15-1.39C-206.36,229.37-225.04,227.36-243.72,225.36z"/>
			</g>
		</g>
	</g>
</g>
<g>
	<g>
		<g>
			<g>
				<path class="st0" d="M191.51,131.52c-14.28,7.04-26.42,1.68-32.66-5.69c-7.14-8.43-8.01-20.88-2.11-30.25
					c5.95-9.43,17.43-13.97,28.22-11.17c11.68,3.03,18.35,12.39,19.18,27.21c1.01,0.16,2.08,0.38,3.16,0.5
					c14.76,1.6,29.52,3.14,44.26,4.81c2.14,0.24,3.55-0.2,4.81-1.99c1.53-2.18,3.13-4.42,5.11-6.16c2.81-2.48,5.68-5.43,9.07-6.61
					c11.62-4.05,23.48-7.41,35.44-11.1c0.52,1.59,0.92,2.82,1.43,4.41c-6.57,1.98-12.92,3.9-19.27,5.81
					c-3.62,1.08-7.22,2.29-10.89,3.16c-7.54,1.79-12.67,6.58-17.03,13.37c3.01,0.32,5.73,0.51,8.41,0.96
					c1.08,0.18,2.66,0.73,2.92,1.49c0.27,0.78-0.56,2.23-1.31,3.02c-10.93,11.62-21.55,23.55-33.01,34.62
					c-9.86,9.54-15.84,20.47-16.85,34.15c-0.8,10.89-2.13,21.76-2.43,32.66c-0.23,8.13,3.2,11.69,11.03,13.56
					c3.36,0.8,6.76,1.45,10.17,2c2.16,0.34,3.01,1.2,1.96,3.49c-19.12-2.05-38.26-4.11-57.38-6.16c-0.56-2.45,0.39-3.11,2.61-3
					c4.01,0.19,8.02,0.2,12.03,0.16c4.9-0.05,8.63-2.19,10.51-6.81c1.17-2.87,2.43-5.85,2.76-8.88c1.38-12.63,2.62-25.29,3.49-37.97
					c0.45-6.54-1.26-12.76-4.77-18.47c-5.9-9.59-11.63-19.29-17.44-28.94C192.51,132.94,191.99,132.23,191.51,131.52z
					 M252.35,119.34c-23.25-2.5-46.24-4.97-69.95-7.52c1.14,1.92,1.97,3.31,2.8,4.7c8.87,14.96,17.53,30.05,26.69,44.83
					c4.43,7.16,5.54,14.79,4.86,22.75c-1.08,12.66-2.68,25.28-4.06,37.92c-0.08,0.78-0.41,1.62-0.22,2.31
					c0.23,0.81,0.92,1.49,1.41,2.22c0.68-0.6,1.79-1.1,1.95-1.81c0.43-1.94,0.44-3.98,0.66-5.98c1.3-11.97,2.43-23.96,4-35.89
					c0.94-7.15,3.52-13.61,8.74-19.06c12.58-13.11,24.84-26.52,37.23-39.82c0.76-0.82,1.44-1.72,2.33-2.78
					c-9.68-2.33-11.57-1.66-15.31,5.13c1.47,0.63,2.94,1.26,4.64,1.99c-0.71,0.88-1.22,1.59-1.81,2.21
					c-9.26,9.81-18.52,19.62-27.81,29.4c-5,5.26-10.89,4.65-14.71-1.49c-2.41-3.88-4.73-7.83-7.08-11.74
					c-5.43-9.03-10.85-18.06-16.68-27.76c1.7,0.78,2.69,1.22,3.67,1.68c11.5,5.43,23.22,7.87,35.92,4.24
					c4.25-1.21,9.18-1.43,13.51-0.6C248.06,125.22,250.34,123.26,252.35,119.34z M180.85,108.21c0.08,0.35,0.16,0.7,0.24,1.05
					c5.7,0.61,11.4,1.28,17.12,1.74c0.54,0.04,1.77-1.34,1.67-1.88c-0.56-3.14-1.29-6.26-2.31-9.27c-0.19-0.57-2.31-1.2-2.93-0.81
					C189.96,101.95,185.43,105.12,180.85,108.21z M179.33,106.92c0.28,0.14,0.55,0.28,0.83,0.42c4.34-3.26,8.75-6.43,12.93-9.88
					c0.65-0.53,0.74-3.04,0.17-3.5c-2.28-1.86-4.84-3.46-7.49-4.75c-0.71-0.34-2.92,0.58-3.08,1.25
					C181.39,95.89,180.41,101.42,179.33,106.92z M175.86,108.47c0.17-0.29,0.33-0.58,0.5-0.87c-2.22-3.02-4.43-6.05-6.67-9.05
					c-5.04-6.74-6.72-6.55-10.49,1.18c-0.43,0.89-1.03,1.88-0.96,2.78c0.08,0.9,0.75,2.34,1.42,2.5
					C165.02,106.3,170.45,107.35,175.86,108.47z M175.86,110.58c-0.08-0.33-0.16-0.67-0.24-1c-5.33-0.82-10.64-1.76-15.99-2.33
					c-0.83-0.09-2.7,1.61-2.61,2.3c0.38,3.03,1.16,6.05,2.14,8.95c0.22,0.64,2.25,1.4,2.81,1.06
					C166.69,116.7,171.25,113.6,175.86,110.58z M177.17,106.72c0.34-0.09,0.68-0.19,1.02-0.28c0.79-5.46,1.68-10.9,2.23-16.38
					c0.07-0.7-1.67-2.34-2.4-2.24c-2.94,0.39-5.85,1.15-8.67,2.09c-0.7,0.23-1.67,2.02-1.42,2.43
					C170.89,97.2,174.06,101.94,177.17,106.72z M177.28,111.71c-0.28-0.15-0.55-0.3-0.83-0.44c-4.24,3.21-8.55,6.32-12.63,9.72
					c-0.68,0.57-0.87,3.08-0.35,3.49c2.4,1.88,5.06,3.49,7.8,4.84c0.65,0.32,2.72-0.54,2.85-1.14
					C175.34,122.72,176.27,117.2,177.28,111.71z M179.56,111.69c-0.48,0.05-0.96,0.1-1.44,0.14c-0.6,5.61-1.29,11.2-1.69,16.82
					c-0.05,0.65,1.59,2.1,2.29,2.01c2.94-0.39,5.86-1.12,8.69-2.01c0.52-0.16,1.14-1.92,0.84-2.45
					C185.47,121.31,182.49,116.52,179.56,111.69z M184.56,235.71c-0.05,0.47-0.1,0.94-0.15,1.41c18.68,2,37.36,4.02,56.04,6.01
					c0.05-0.46,0.1-0.93,0.15-1.39C221.92,239.72,203.24,237.72,184.56,235.71z"/>
			</g>
		</g>
	</g>
</g>
<g>
	<text transform="matrix(1 0 0 1 -850.2527 231.1411)" style="font-family:'Soothing-Regular'; font-size:160.3696px;">MY DRINK</text>
</g>
</svg>
